<svg width="22" height="22" viewBox="0 0 22 22" fill="none" xmlns="http://www.w3.org/2000/svg">
<path d="M6.69815 18.78H15.3019C16.8119 18.78 18.0403 17.5516 18.0403 16.0416V7.85538C18.0403 7.58834 17.8218 7.36984 17.5548 7.36984H14.6416V6.64154C14.6416 4.63384 13.0077 3 11 3C8.99232 3 7.35849 4.63384 7.35849 6.64154V7.36984H4.44526C4.17821 7.36984 3.95972 7.58834 3.95972 7.85538V16.0416C3.95972 17.5516 5.18813 18.78 6.69815 18.78ZM8.32956 6.64154C8.32956 5.16793 9.52641 3.97108 11 3.97108C12.4736 3.97108 13.6705 5.16793 13.6705 6.64154V7.36984H8.32956V6.64154ZM4.93079 8.34092H7.35849V9.55477C7.35849 9.82181 7.57698 10.0403 7.84402 10.0403C8.11107 10.0403 8.32956 9.82181 8.32956 9.55477V8.34092H13.6705V9.55477C13.6705 9.82181 13.889 10.0403 14.156 10.0403C14.4231 10.0403 14.6416 9.82181 14.6416 9.55477V8.34092H17.0693V16.0416C17.0693 17.0151 16.2754 17.8089 15.3019 17.8089H6.69815C5.72465 17.8089 4.93079 17.0151 4.93079 16.0416V8.34092Z" fill="white"/>
</svg>
