<svg width="153" height="25" viewBox="0 0 153 25" fill="none" xmlns="http://www.w3.org/2000/svg">
<path d="M11.44 24.2C16.632 24.2 20.504 21.164 22.44 16.94L22.088 16.764C20.284 20.24 17.116 22.66 13.332 22.66C8.14 22.66 3.828 18.524 3.828 11.132C3.828 4.928 7.48 0.836 12.32 0.836C15.972 0.836 19.624 2.904 21.648 7.964H21.956L21.032 0.703999H20.724C20.548 1.804 20.328 2.024 19.888 2.024C19.052 2.024 16.896 0.263999 12.32 0.263999C5.5 0.263999 0 5.588 0 12.584C0 19.228 4.796 24.2 11.44 24.2Z" fill="white"/>
<path d="M40.8277 23.452V23.76H49.9357V23.452C47.8237 23.232 47.3837 22.748 46.0637 19.58L40.0357 3.696C39.2437 1.672 39.0237 0.968001 38.8037 0H38.5397C37.9237 0.836 36.9117 1.54 35.7237 1.804L36.3397 3.344L30.3117 19.272C29.0797 22.264 28.1557 23.232 26.4397 23.452V23.76H33.7437V23.452C30.6637 23.232 30.0917 22.044 31.1477 19.448L32.8637 14.828H40.7397L43.0717 21.076C43.6437 22.616 43.5117 23.32 40.8277 23.452ZM33.1277 14.08L36.8237 4.224L40.4757 14.08H33.1277Z" fill="white"/>
<path d="M62.7006 24.2C67.1006 24.2 70.3566 21.076 70.3566 17.16C70.3566 14.564 68.9486 12.364 65.0766 10.736L63.1846 9.944C59.4006 8.404 58.5646 6.864 58.5646 4.884C58.5646 2.332 60.6326 0.836 62.9646 0.836C65.7806 0.836 67.9366 2.992 69.3006 6.776H69.6526L68.9926 0.703999H68.6406C68.5086 1.276 68.3326 1.452 67.9806 1.452C67.3206 1.452 65.5166 0.263999 62.9646 0.263999C59.1806 0.263999 56.2766 3.124 56.2766 6.864C56.2766 9.284 57.5966 11.528 61.5126 13.156L63.4046 13.948C66.7926 15.312 68.0686 16.984 68.0686 19.052C68.0686 21.736 65.9126 23.628 62.7006 23.628C59.1366 23.628 56.9806 21.12 55.5286 16.896H55.2206L55.9246 23.76H56.2766C56.4086 23.188 56.5846 23.012 56.9366 23.012C57.6406 23.012 59.7966 24.2 62.7006 24.2Z" fill="white"/>
<path d="M84.8334 24.2C89.2334 24.2 92.4894 21.076 92.4894 17.16C92.4894 14.564 91.0814 12.364 87.2094 10.736L85.3174 9.944C81.5334 8.404 80.6974 6.864 80.6974 4.884C80.6974 2.332 82.7654 0.836 85.0974 0.836C87.9134 0.836 90.0694 2.992 91.4334 6.776H91.7854L91.1254 0.703999H90.7734C90.6414 1.276 90.4654 1.452 90.1134 1.452C89.4534 1.452 87.6494 0.263999 85.0974 0.263999C81.3134 0.263999 78.4094 3.124 78.4094 6.864C78.4094 9.284 79.7294 11.528 83.6454 13.156L85.5374 13.948C88.9254 15.312 90.2014 16.984 90.2014 19.052C90.2014 21.736 88.0454 23.628 84.8334 23.628C81.2694 23.628 79.1134 21.12 77.6614 16.896H77.3534L78.0574 23.76H78.4094C78.5414 23.188 78.7174 23.012 79.0694 23.012C79.7734 23.012 81.9294 24.2 84.8334 24.2Z" fill="white"/>
<path d="M99.0923 23.452V23.76H107.892V23.452C105.648 23.32 105.208 23.056 105.208 21.736V2.728C105.208 1.452 105.56 1.144 107.892 1.012V0.703999H99.0923V1.012C101.38 1.144 101.82 1.452 101.82 2.728V21.736C101.82 23.056 101.38 23.32 99.0923 23.452Z" fill="white"/>
<path d="M114.001 23.452V23.76H122.713V23.452C119.061 23.232 118.093 22.528 118.093 19.888V3.388L134.021 24.2H134.373V4.576C134.373 1.892 135.341 1.232 137.673 1.012V0.703999H129.401V1.012C132.525 1.232 133.537 1.848 133.537 4.576V18.436L120.293 0.703999H114.001V1.012C116.377 1.232 117.301 1.98 117.301 4.576V19.888C117.301 22.528 116.333 23.232 114.001 23.452Z" fill="white"/>
<path d="M143.573 23.452V23.76H152.373V23.452C150.129 23.32 149.689 23.056 149.689 21.736V2.728C149.689 1.452 150.041 1.144 152.373 1.012V0.703999H143.573V1.012C145.861 1.144 146.301 1.452 146.301 2.728V21.736C146.301 23.056 145.861 23.32 143.573 23.452Z" fill="white"/>
</svg>
