<svg width="68" height="68" viewBox="0 0 68 68" fill="none" xmlns="http://www.w3.org/2000/svg">
<g clip-path="url(#clip0_11_466)">
<path d="M24.2594 37.2194C25.7962 37.442 29.726 28.2019 30.0086 27.9964C30.2911 27.791 35.9503 28.2383 35.2033 25.2246C33.5017 26.6651 32.7033 25.1048 32.7804 23.9704C32.8574 22.8338 34.2979 20.4216 34.6768 20.5842C35.0556 20.749 35.7084 22.0932 37.0697 20.8475C35.0085 21.0444 35.4944 18.0286 36.1344 17.6669C36.7765 17.3073 39.2658 16.2071 39.9871 15.5072C40.7084 14.8073 40.7641 12.6005 42.2345 13.0864C43.705 13.5723 42.6198 16.7016 43.0586 17.7546C43.4974 18.8077 47.4742 22.1681 47.4079 23.2276C47.3415 24.2893 45.6699 24.0988 45.7062 25.5799C45.7062 26.1792 46.7486 26.6266 46.7764 27.3265C46.8064 28.0264 45.6506 28.5529 45.6506 28.5529C45.6506 28.5529 46.6416 28.8248 46.449 29.8757C46.252 30.9245 44.9828 30.6077 44.5761 30.8261C44.3856 30.9309 46.526 33.279 44.9314 35.0491C43.4931 36.7421 36.2949 34.9592 34.9101 35.4964C32.3052 36.5088 30.1477 40.0212 31.5839 41.6843C33.018 43.3453 37.973 48.707 39.2594 53.1611C41.4661 59.0001 36.0573 69.1927 33.0329 61.7998C28.7521 64.6808 37.7033 75.2608 50.2589 59.3383C59.88 46.391 55.1754 22.8188 52.3329 17.5235C49.4948 12.2303 36.2628 -6.05732 22.0634 2.03767C4.40081 11.6866 12.8019 35.0319 24.2594 37.2194Z" fill="white"/>
</g>
<defs>
<clipPath id="clip0_11_466">
<rect width="67.9149" height="67.9149" fill="white"/>
</clipPath>
</defs>
</svg>
