<svg width="138" height="137" viewBox="0 0 138 137" fill="none" xmlns="http://www.w3.org/2000/svg">
<path d="M45.8628 126.552L45.9355 125.393L50.9802 119.695L50.334 128.993C50.2746 129.821 50.0984 130.031 48.8228 129.555L48.7788 129.661L52.549 131.226L52.5929 131.12C51.6465 130.621 51.5376 130.327 51.6012 128.933L52.2805 118.016L52.0836 117.934L45.97 124.839L46.5571 115.641L46.3452 115.553L39.2181 123.617C38.2763 124.646 37.7167 124.84 36.8009 124.566L36.7569 124.672L40.1485 126.08L40.1924 125.974C38.7766 125.28 38.7354 124.695 39.5198 123.831L45.2355 117.329L44.5955 126.612C44.5362 127.439 44.3751 127.656 43.0844 127.174L43.0404 127.28L46.8257 128.851L46.8696 128.745C45.908 128.239 45.8143 127.952 45.8628 126.552Z" fill="white"/>
<path d="M34.3116 107.727L34.3851 107.639L31.325 105.089L31.2515 105.177C32.0785 105.951 32.1708 106.199 31.7615 106.69L25.3385 114.397C24.9291 114.888 24.6689 114.842 23.758 114.168L23.6845 114.256L26.7446 116.807L26.8181 116.718C25.9912 115.944 25.8988 115.696 26.3081 115.205L29.3727 111.528L34.4351 115.747L31.3705 119.424C30.9612 119.915 30.7009 119.869 29.79 119.195L29.7166 119.283L32.7767 121.834L32.8501 121.746C32.0232 120.971 31.9309 120.723 32.3402 120.232L38.7632 112.525C39.1725 112.034 39.4328 112.08 40.3437 112.754L40.4172 112.666L37.3571 110.116L37.2836 110.204C38.1105 110.978 38.2029 111.226 37.7936 111.717L34.624 115.52L29.5616 111.301L32.7312 107.498C33.1405 107.007 33.4007 107.053 34.3116 107.727Z" fill="white"/>
<path d="M30.0187 103.662L30.1109 103.593L25.1223 96.864L22.3003 97.8744L22.3686 97.9666C24.7215 97.5896 25.5657 97.9025 26.5419 99.2194L27.8989 101.05C28.1918 101.445 28.167 101.769 27.7983 102.043L23.7949 105.011L22.4574 103.206C21.5788 102.021 21.8084 101.422 22.8769 100.304L22.8086 100.212L19.3319 102.789L19.4002 102.881C20.7153 102.233 21.3681 102.177 22.2467 103.363L23.5842 105.167L19.1725 108.437L17.6203 106.343C16.5269 104.868 16.5378 104.085 17.6397 102.268L17.5616 102.163L15.7109 104.208L20.5238 110.7L20.616 110.632C19.995 109.684 19.9637 109.422 20.4773 109.041L28.5368 103.067C29.0504 102.686 29.2925 102.792 30.0187 103.662Z" fill="white"/>
<path d="M23.5691 94.6563L23.6737 94.6092L21.9592 90.7968L21.8546 90.8438C22.3394 92.0818 22.3139 92.3449 21.7308 92.6071L17.2157 94.6376L16.8324 93.7854C16.6711 93.4266 16.6569 93.2352 17.0622 92.6575L19.4302 89.1301C20.3828 87.7311 20.365 87.092 19.975 86.2249C19.8406 85.9258 19.6224 85.5207 19.4782 85.2799L19.3735 85.327C19.6163 86.0267 19.3852 86.8316 18.4049 88.3689L15.9553 92.2746C15.1184 91.213 13.6948 89.9659 11.9754 90.7391C10.2561 91.5123 10.0194 93.3443 11.2499 96.0803L12.7896 99.504L12.8942 99.4569C12.5051 98.3917 12.5156 98.1354 13.0837 97.8799L22.2485 93.7583C22.8316 93.4961 23.0453 93.6516 23.5691 94.6563ZM16.9914 94.7385L11.953 97.0043L11.6101 96.2418C10.6688 94.1487 11.0399 92.6158 12.7443 91.8493C14.2992 91.15 15.761 92.0025 16.5746 93.8115L16.9914 94.7385Z" fill="white"/>
<path d="M19.1083 84.2226L19.2206 84.199L17.4963 76.0015L14.5101 75.7418L14.5338 75.8541C16.8293 76.4936 17.4657 77.1303 17.8032 78.7345L18.2722 80.9643C18.3734 81.4456 18.2155 81.7301 17.7663 81.8246L12.8895 82.8504L12.4273 80.6526C12.1236 79.2088 12.5821 78.7606 14.02 78.1901L13.9964 78.0778L9.7613 78.9686L9.78492 79.0809C11.2506 79.0407 11.8669 79.2628 12.1706 80.7066L12.6329 82.9044L7.25879 84.0347L6.72227 81.4841C6.34435 79.6874 6.68135 78.9799 8.44105 77.7889L8.41405 77.6606L5.87847 78.7467L7.542 86.6555L7.6543 86.6318C7.48564 85.5114 7.56673 85.2599 8.19237 85.1283L18.0101 83.0632C18.6357 82.9316 18.8113 83.1292 19.1083 84.2226Z" fill="white"/>
<path d="M16.8506 68.586L16.9648 68.5968L17.3453 64.5656C17.5902 61.9707 16.5587 59.8151 14.4044 59.6118C12.3806 59.4208 11.3672 61.087 11.0484 62.72L11.0157 62.7169C10.8624 61.5498 10.286 59.9805 8.55606 59.8173C6.79344 59.6509 5.68883 61.0615 5.44854 63.6075L5.08349 67.4755L5.19773 67.4863C5.36929 66.3663 5.52142 66.1501 6.15792 66.2102L16.1461 67.1529C16.7826 67.213 16.8916 67.4538 16.8506 68.586ZM16.2157 65.8916L10.9932 65.3987L11.1087 64.1746C11.3028 62.1183 12.4828 60.7806 14.4413 60.9655C16.2529 61.1364 17.2798 62.4683 17.0749 64.6389C16.964 65.814 16.7706 65.9439 16.2157 65.8916ZM10.732 65.374L5.59106 64.8888L5.6958 63.779C5.86678 61.9675 6.87377 60.8934 8.62007 61.0582C10.1379 61.2015 11.0185 62.3384 10.8306 64.3295L10.732 65.374Z" fill="white"/>
<path d="M18.0803 57.8364L18.19 57.87L20.51 50.2825L17.9893 48.6032L17.9557 48.7129C19.6568 50.3816 19.9284 51.2875 19.4491 52.8551L18.9218 54.5796C18.778 55.0499 18.5337 55.2323 18.0634 55.0885L8.45361 52.1502C7.84222 51.9633 7.78391 51.7054 8.05194 50.6046L7.9422 50.571L6.77743 54.3804L6.88717 54.414C7.28061 53.3515 7.47313 53.1704 8.08452 53.3573L17.6786 56.2908C18.2743 56.4729 18.3483 56.7356 18.0803 57.8364Z" fill="white"/>
<path d="M24.3283 43.01C26.0505 40.0861 25.2563 36.4602 22.0217 34.5549C18.9283 32.7329 15.5682 33.7218 13.8793 36.5891C12.1821 39.4706 12.9929 43.0684 16.2275 44.9736C19.3209 46.7956 22.6727 45.8209 24.3283 43.01ZM16.5642 43.4976C13.6968 41.8087 12.7301 39.0894 13.978 36.9707C15.384 34.5836 18.733 34.2921 21.6851 36.0309C24.5666 37.7281 25.4942 40.4814 24.238 42.6143C22.8569 44.9591 19.5163 45.2364 16.5642 43.4976Z" fill="white"/>
<path d="M28.4636 35.9697L28.5439 36.0516L31.4247 33.2297L31.3444 33.1477C30.0694 34.259 29.5706 34.2886 28.6759 33.3752L22.401 26.9694L35.7787 29.1941L35.8607 29.1138L28.6681 21.7712C27.7734 20.8578 27.825 20.3483 28.6227 19.4291L28.5424 19.3472L25.6616 22.1691L25.7419 22.2511C27.017 21.1398 27.5274 21.0987 28.4222 22.0121L33.9514 27.6567L22.1484 25.6105L20.1927 27.5263L20.273 27.6082C21.2202 26.8181 21.7189 26.7885 22.6137 27.7019L28.4182 33.6276C29.313 34.541 29.2731 35.039 28.4636 35.9697Z" fill="white"/>
<path d="M38.1357 26.7876L38.1927 26.8873L42.0069 24.7072C45.3088 22.8199 46.8924 19.2147 45.0214 15.9412C43.2318 12.8101 39.6856 12.2879 36.2414 14.2565L32.2706 16.5261L32.3275 16.6258C33.3421 16.1214 33.6064 16.1214 33.9237 16.6764L38.9021 25.3866C39.2194 25.9417 39.0852 26.1694 38.1357 26.7876ZM39.9167 24.6179L34.6779 15.4523L36.1865 14.59C39.0757 12.9387 42.2803 14.0526 43.9967 17.0556C45.6969 20.0302 44.5524 22.9501 42.0476 24.3818C40.5247 25.2522 40.2258 25.1587 39.9167 24.6179Z" fill="white"/>
<path d="M50.0199 20.4039L50.052 20.514L58.094 18.1694L58.1251 15.1721L58.015 15.2042C57.5524 17.5418 56.9662 18.225 55.3924 18.6838L53.2048 19.3216C52.7327 19.4593 52.437 19.3235 52.3085 18.8828L50.9136 14.0985L53.0697 13.4699C54.4861 13.057 54.968 13.48 55.6465 14.8702L55.7567 14.838L54.5454 10.6833L54.4352 10.7154C54.5872 12.1737 54.4127 12.8052 52.9963 13.2181L50.8402 13.8467L49.3031 8.57455L51.8054 7.845C53.568 7.3311 54.2991 7.61314 55.6209 9.27685L55.7468 9.24014L54.4704 6.79482L46.7116 9.05689L46.7437 9.16706C47.848 8.91341 48.105 8.97507 48.284 9.58885L51.0921 19.2204C51.271 19.8342 51.0874 20.0243 50.0199 20.4039Z" fill="white"/>
<path d="M64.5188 17.505C66.6751 17.3244 68.1365 15.7214 67.9709 13.7448C67.8614 12.4379 67.0332 11.3886 65.0372 10.7334L64.0391 10.4057C62.1112 9.77761 61.584 8.98281 61.4964 7.93731C61.3746 6.48342 62.3721 5.62668 63.6299 5.52129C64.9858 5.4077 66.1842 6.36012 66.9746 8.13636L67.089 8.12678L66.5309 5.196L66.4002 5.20694C66.3608 5.5228 66.3037 5.62629 66.1403 5.63998C65.8136 5.66735 64.9326 5.1654 63.6094 5.27626C61.8124 5.42681 60.4858 6.87045 60.6445 8.76541C60.7444 9.95792 61.5086 11.029 63.4884 11.6856L64.4864 12.0133C66.2959 12.602 67.0233 13.4293 67.115 14.5238C67.2422 16.0431 66.1808 17.119 64.4983 17.26C62.7503 17.4064 61.5573 16.322 60.7015 14.3538L60.5708 14.3648L61.2216 17.6168L61.3523 17.6058C61.3916 17.29 61.4651 17.1851 61.6284 17.1714C61.9552 17.1441 63.0159 17.631 64.5188 17.505Z" fill="white"/>
<path d="M82.8161 18.8649L82.7896 18.9766L86.6655 19.8965L86.692 19.7848C85.6066 19.4598 85.4136 19.2792 85.5612 18.6572L87.878 8.89578C88.0256 8.27373 88.2792 8.19913 89.3949 8.39653L89.4214 8.28488L85.5455 7.36499L85.519 7.47664C86.6045 7.80164 86.7975 7.98224 86.6498 8.60429L85.5444 13.2617L79.1325 11.7399L80.2379 7.08248C80.3856 6.46043 80.6392 6.38583 81.7549 6.58324L81.7814 6.47159L77.9055 5.55169L77.879 5.66334C78.9644 5.98835 79.1574 6.16894 79.0098 6.79099L76.693 16.5524C76.5454 17.1744 76.2918 17.249 75.1761 17.0516L75.1496 17.1633L79.0254 18.0832L79.0519 17.9715C77.9665 17.6465 77.7735 17.4659 77.9212 16.8439L79.0644 12.027L85.4763 13.5488L84.3331 18.3657C84.1854 18.9877 83.9318 19.0623 82.8161 18.8649Z" fill="white"/>
<path d="M94.5352 23.7028L94.4821 23.8045L98.1004 25.694L98.1535 25.5923C97.2545 25.0119 97.1864 24.7174 97.3575 23.3273L98.5659 14.2491C98.718 13.1079 98.7591 12.852 98.9085 12.2827L98.8213 12.2372C98.437 12.4064 97.8873 12.3967 97.4785 12.2942L97.391 13.0992L90.4149 19.5168C89.3719 20.4517 88.7248 20.5576 87.9672 20.2729L87.9141 20.3747L90.9801 21.9758L91.0333 21.8741C89.7855 21.1115 89.8249 20.5403 90.6821 19.7488L92.9034 17.6909L96.5942 19.6183L96.0899 23.2756C95.9727 24.1021 95.7641 24.2891 94.5352 23.7028ZM93.1417 17.4825L97.435 13.5106L96.6291 19.3036L93.1417 17.4825Z" fill="white"/>
<path d="M106.638 19.5228L102.76 29.8512L102.921 29.9908L112.451 24.7798C113.694 24.1218 114.274 24.1038 115.081 24.6738L115.156 24.5871L112.382 22.1816L112.307 22.2683C113.481 23.4165 113.263 23.9433 112.232 24.4816L104.482 28.7408L107.859 19.8658C108.152 19.078 108.373 18.9227 109.433 19.7769L109.508 19.6902L106.424 17.0163L106.349 17.103C107.09 17.8753 107.113 18.199 106.638 19.5228Z" fill="white"/>
<path d="M108.147 34.5003L108.054 34.5682L113.014 41.3191L115.84 40.3208L115.772 40.2283C113.418 40.5952 112.575 40.2786 111.604 38.9575L110.255 37.1212C109.964 36.7249 109.99 36.4005 110.36 36.1288L114.376 33.1782L115.706 34.9881C116.58 36.1771 116.347 36.7749 115.274 37.8889L115.342 37.9813L118.83 35.419L118.762 35.3266C117.444 35.9693 116.791 36.0219 115.918 34.8329L114.588 33.0229L119.014 29.7715L120.557 31.8721C121.644 33.3517 121.629 34.1352 120.52 35.9472L120.597 36.0529L122.457 34.0155L117.672 27.5025L117.58 27.5704C118.196 28.5208 118.227 28.7834 117.711 29.1619L109.626 35.1018C109.111 35.4803 108.869 35.373 108.147 34.5003Z" fill="white"/>
<path d="M116.813 47.4449L116.703 47.4776L117.792 51.1386L117.902 51.1059C117.567 49.6323 117.773 49.1774 119.008 48.8443L128.23 46.3236L118.545 53.6684L118.606 53.8726L130.735 54.7455L120.802 57.9225C120.194 58.1205 119.999 57.9222 119.618 56.8724L119.508 56.9052L120.639 60.7076L120.749 60.6749C120.489 59.572 120.559 59.3461 121.167 59.1481L130.727 56.099C131.335 55.901 131.531 56.0993 131.912 57.1491L132.022 57.1164L131.185 54.3038C130.789 54.3531 129.872 54.318 129.106 54.2723L120.556 53.7029L127.682 48.3337C128.209 47.9204 128.676 47.5933 129.1 47.296L128.198 44.2634L128.088 44.2962C128.345 45.5027 128.3 45.9265 127.069 46.2754L118.906 48.4986C117.675 48.8475 117.258 48.5953 116.813 47.4449Z" fill="white"/>
<path d="M120.693 68.4312C120.711 71.8246 123.251 74.532 127.005 74.5116C130.595 74.492 132.974 71.9217 132.956 68.594C132.938 65.2498 130.399 62.5751 126.645 62.5956C123.055 62.6151 120.675 65.1691 120.693 68.4312ZM127.112 64.0357C130.439 64.0175 132.663 65.8579 132.676 68.3168C132.691 71.0872 129.964 73.0528 126.538 73.0715C123.194 73.0897 120.987 71.2001 120.973 68.7248C120.958 66.0036 123.686 64.0543 127.112 64.0357Z" fill="white"/>
<path d="M120.615 76.7337L120.504 76.7064L119.509 80.7666L119.621 80.7939C120 79.5198 120.182 79.3281 120.803 79.4802L125.612 80.6582L125.389 81.5658C125.296 81.9479 125.189 82.1074 124.514 82.3134L120.477 83.6366C118.865 84.1532 118.486 84.6679 118.26 85.5913C118.182 85.9098 118.104 86.3634 118.07 86.6419L118.181 86.6692C118.42 85.9683 119.098 85.4761 120.817 84.8676L125.151 83.2964C125.157 84.6482 125.512 86.5073 127.343 86.9559C129.174 87.4044 130.488 86.106 131.202 83.1923L132.095 79.5461L131.984 79.5188C131.635 80.5979 131.469 80.7935 130.864 80.6453L121.104 78.2542C120.483 78.1021 120.41 77.848 120.615 76.7337ZM125.851 80.7167L131.216 82.0312L131.017 82.8432C130.471 85.0724 129.235 86.0523 127.42 85.6076C125.764 85.202 125.137 83.6305 125.609 81.7039L125.851 80.7167Z" fill="white"/>
<path d="M117.711 87.703L117.608 87.6525L113.922 95.1751L116.116 97.2175L116.167 97.1144C114.751 95.1977 114.641 94.3042 115.362 92.832L116.365 90.7858C116.581 90.3441 116.881 90.2171 117.293 90.419L121.768 92.6115L120.78 94.6283C120.131 95.9533 119.494 96.0244 118.009 95.5892L117.959 95.6923L121.845 97.5963L121.896 97.4932C120.716 96.623 120.366 96.0687 121.016 94.7437L122.004 92.7269L126.935 95.143L125.789 97.4837C124.981 99.1325 124.28 99.4827 122.16 99.3386L122.102 99.4564L124.769 100.161L128.325 92.903L128.222 92.8525C127.665 93.8394 127.446 93.9878 126.872 93.7065L117.863 89.2927C117.289 89.0114 117.272 88.7476 117.711 87.703Z" fill="white"/>
<path d="M109.834 101.406L109.75 101.328L106.768 104.532L106.852 104.611C107.939 103.539 108.191 103.46 108.671 103.907L112.296 107.279L110.878 108.804C109.873 109.884 109.242 109.767 107.947 108.921L107.869 109.005L111.038 111.953L111.116 111.869C110.238 110.694 110.065 110.062 111.07 108.982L112.488 107.458L116.509 111.199L114.934 112.891C113.683 114.235 112.911 114.368 110.924 113.616L110.834 113.712L113.183 115.158L118.487 109.457L118.403 109.379C117.585 110.163 117.332 110.241 116.864 109.806L109.519 102.972C109.051 102.536 109.111 102.279 109.834 101.406Z" fill="white"/>
<path d="M98.3556 111.545C96.1654 113.046 95.4917 115.079 97.281 117.688L100.572 122.487C101.295 123.542 101.156 124.035 100.211 124.802L100.276 124.897L103.467 122.709L103.402 122.614C102.089 123.395 101.579 123.347 100.856 122.293L97.5649 117.493C95.9054 115.073 96.5787 113.359 98.2417 112.219C99.9587 111.042 101.762 111.236 103.356 113.562L107.12 119.051C107.482 119.578 107.367 119.816 106.471 120.51L106.536 120.604L109.821 118.352L109.756 118.257C108.786 118.843 108.523 118.864 108.161 118.337L104.342 112.767C102.599 110.225 100.532 110.052 98.3556 111.545Z" fill="white"/>
<path d="M92.339 115.798L92.2996 115.69L88.5118 117.074L88.5512 117.182C90.1709 116.695 90.6375 116.874 91.0764 118.075L94.1537 126.497L82.8817 118.957L82.7739 118.996L86.3013 128.65C86.7401 129.851 86.4831 130.294 85.3774 130.803L85.4168 130.911L89.2046 129.527L89.1652 129.419C87.5455 129.906 87.0635 129.733 86.6246 128.532L83.913 121.111L93.8238 127.839L96.3952 126.9L96.3558 126.792C95.1673 127.121 94.7006 126.943 94.2618 125.742L91.4151 117.951C90.9763 116.75 91.2179 116.312 92.339 115.798Z" fill="white"/>
</svg>
