<svg width="10" height="10" viewBox="0 0 10 10" fill="none" xmlns="http://www.w3.org/2000/svg">
<path d="M4.81169 3.69832C4.0949 3.69832 3.50993 4.28328 3.50993 5.00007C3.50993 5.71687 4.0949 6.30183 4.81169 6.30183C5.52849 6.30183 6.11345 5.71687 6.11345 5.00007C6.11345 4.28328 5.52849 3.69832 4.81169 3.69832ZM8.71599 5.00007C8.71599 4.46101 8.72087 3.92683 8.6906 3.38875C8.66033 2.76374 8.51775 2.20906 8.06072 1.75203C7.60271 1.29402 7.049 1.15242 6.424 1.12214C5.88493 1.09187 5.35075 1.09675 4.81267 1.09675C4.27361 1.09675 3.73943 1.09187 3.20134 1.12214C2.57634 1.15242 2.02165 1.29499 1.56462 1.75203C1.10661 2.21003 0.965012 2.76374 0.934739 3.38875C0.904465 3.92781 0.909348 4.46199 0.909348 5.00007C0.909348 5.53816 0.904465 6.07332 0.934739 6.6114C0.965012 7.2364 1.10759 7.79109 1.56462 8.24812C2.02263 8.70613 2.57634 8.84773 3.20134 8.878C3.7404 8.90828 4.27458 8.90339 4.81267 8.90339C5.35173 8.90339 5.88591 8.90828 6.424 8.878C7.049 8.84773 7.60368 8.70515 8.06072 8.24812C8.51872 7.79011 8.66033 7.2364 8.6906 6.6114C8.72185 6.07332 8.71599 5.53914 8.71599 5.00007ZM4.81169 7.003C3.70329 7.003 2.80876 6.10847 2.80876 5.00007C2.80876 3.89167 3.70329 2.99714 4.81169 2.99714C5.92009 2.99714 6.81462 3.89167 6.81462 5.00007C6.81462 6.10847 5.92009 7.003 4.81169 7.003ZM6.89665 3.38289C6.63786 3.38289 6.42888 3.1739 6.42888 2.91511C6.42888 2.65632 6.63786 2.44734 6.89665 2.44734C7.15544 2.44734 7.36443 2.65632 7.36443 2.91511C7.3645 2.97656 7.35246 3.03742 7.32898 3.09421C7.3055 3.151 7.27104 3.2026 7.22759 3.24605C7.18414 3.2895 7.13254 3.32396 7.07575 3.34744C7.01897 3.37092 6.9581 3.38296 6.89665 3.38289Z" fill="white"/>
</svg>
