<svg width="16" height="16" viewBox="0 0 16 16" fill="none" xmlns="http://www.w3.org/2000/svg">
<path fill-rule="evenodd" clip-rule="evenodd" d="M5.95833 0C2.67025 0 0 2.67025 0 5.95833C0 9.24642 2.67025 11.9167 5.95833 11.9167C9.24642 11.9167 11.9167 9.24642 11.9167 5.95833C11.9167 2.67025 9.24642 0 5.95833 0ZM5.95833 0.916667C8.74133 0.916667 11 3.17533 11 5.95833C11 8.74133 8.74133 11 5.95833 11C3.17533 11 0.916667 8.74133 0.916667 5.95833C0.916667 3.17533 3.17533 0.916667 5.95833 0.916667Z" fill="white"/>
<path fill-rule="evenodd" clip-rule="evenodd" d="M15.4494 14.8005L10.1703 9.52233C9.99158 9.34358 9.701 9.34358 9.52225 9.52233C9.3435 9.70108 9.3435 9.99166 9.52225 10.1704L14.8004 15.4495C14.9801 15.6282 15.2697 15.6282 15.4494 15.4495C15.6282 15.2698 15.6282 14.9802 15.4494 14.8005Z" fill="white"/>
</svg>
