<svg width="10" height="10" viewBox="0 0 10 10" fill="none" xmlns="http://www.w3.org/2000/svg">
<g clip-path="url(#clip0_11_331)">
<path d="M9.85122 2.05708C9.5033 2.21124 9.12955 2.31541 8.73663 2.36249C9.14205 2.11991 9.44536 1.7381 9.58997 1.28833C9.20907 1.51457 8.79219 1.67382 8.35747 1.75916C8.06512 1.44702 7.67791 1.24013 7.25593 1.17061C6.83396 1.10109 6.40084 1.17282 6.02381 1.37468C5.64679 1.57654 5.34695 1.89723 5.17086 2.28695C4.99477 2.67668 4.95227 3.11364 5.04996 3.52999C4.27817 3.49124 3.52314 3.29064 2.83389 2.9412C2.14464 2.59177 1.53656 2.10131 1.04913 1.50166C0.882464 1.78916 0.786631 2.12249 0.786631 2.47749C0.786445 2.79707 0.865145 3.11176 1.01575 3.39363C1.16635 3.6755 1.3842 3.91584 1.64996 4.09333C1.34175 4.08352 1.04033 4.00024 0.770798 3.85041V3.87541C0.770766 4.32364 0.925811 4.75807 1.20962 5.10499C1.49344 5.45192 1.88854 5.68996 2.32788 5.77874C2.04196 5.85613 1.74219 5.86752 1.45121 5.81208C1.57517 6.19775 1.81663 6.53501 2.14178 6.77663C2.46694 7.01825 2.85951 7.15215 3.26455 7.15958C2.57698 7.69933 1.72783 7.99211 0.853714 7.99083C0.698873 7.99087 0.544163 7.98183 0.390381 7.96374C1.27766 8.53423 2.31052 8.837 3.36538 8.83583C6.93621 8.83583 8.8883 5.87833 8.8883 3.31333C8.8883 3.22999 8.88622 3.14583 8.88247 3.06249C9.26217 2.7879 9.58993 2.44787 9.85038 2.05833L9.85122 2.05708Z" fill="white"/>
</g>
<defs>
<clipPath id="clip0_11_331">
<rect width="10" height="10" fill="white"/>
</clipPath>
</defs>
</svg>
